<svg width="48" height="48" viewBox="0 0 48 48" fill="none" xmlns="http://www.w3.org/2000/svg">
<g clip-path="url(#clip0_16_45)">
<circle cx="24" cy="24" r="24" fill="#3B65AD"/>
<path d="M25.0805 28.8699L23.6205 27.8699L25.4805 24.8099L22.4805 23.4699L23.0005 21.8299L26.2005 22.6099L26.4805 19.1299H28.2405L28.5205 22.6099L31.7205 21.8299L32.2405 23.4699L29.2405 24.8099L31.1005 27.8699L29.6405 28.8699L27.3605 26.1499L25.0805 28.8699Z" fill="#A5C0ED"/>
<path d="M11.3607 28.8699L9.90074 27.8699L11.7607 24.8099L8.76074 23.4699L9.28074 21.8299L12.4807 22.6099L12.7607 19.1299H14.5207L14.8007 22.6099L18.0007 21.8299L18.5207 23.4699L15.5207 24.8099L17.3807 27.8699L15.9207 28.8699L13.6407 26.1499L11.3607 28.8699Z" fill="#A5C0ED"/>
<path d="M36.2002 34V14H39.2402V34H36.2002Z" fill="#A5C0ED"/>
</g>
<defs>
<clipPath id="clip0_16_45">
<rect width="48" height="48" fill="white"/>
</clipPath>
</defs>
</svg>
