<svg width="48" height="48" viewBox="0 0 48 48" fill="none" xmlns="http://www.w3.org/2000/svg">
<g clip-path="url(#clip0_16_40)">
<circle cx="24" cy="24" r="24" fill="#217566"/>
<path fill-rule="evenodd" clip-rule="evenodd" d="M17.5067 33.1461C14.5994 31.7893 11.0138 32.7584 8.49414 33.8244L14.5994 10.6631C17.216 9.59709 20.7047 8.628 23.612 9.98473C24.8577 10.5557 25.5196 11.3212 26.2081 12.1175C26.8052 12.808 27.4223 13.5217 28.4575 14.1518C30.2987 15.3147 33.4968 16.1869 39.5051 14.8302L33.3998 37.9915C27.4884 39.3483 24.1935 38.4761 22.3522 37.3132C21.317 36.6831 20.6999 35.9694 20.1028 35.2788C19.4143 34.4825 18.7524 33.717 17.5067 33.1461ZM27.6831 20.1601C29.8151 21.7107 33.3039 20.257 33.0131 20.257C32.9739 20.257 32.9245 20.2583 32.8657 20.2598C32.1983 20.277 30.3208 20.3253 28.3615 18.9003C27.6831 18.5127 27.2955 18.0281 26.9078 17.5436C26.1632 16.6335 25.913 15.7234 25.7955 15.2957C25.7754 15.2225 25.7591 15.1634 25.7449 15.1208L22.9346 26.0716C22.2562 25.4902 21.2871 25.1025 20.2211 25.1025C18.0891 25.0056 16.3447 26.5562 16.3447 28.3974C16.3447 30.2387 18.0891 31.7893 20.2211 31.7893C21.9655 31.7893 23.4191 30.8202 23.9037 29.3665L26.6171 18.9972C26.6674 19.0643 26.7177 19.1342 26.769 19.2055C27.0142 19.5467 27.2824 19.9197 27.6831 20.1601Z" fill="#C7D1CF"/>
</g>
<defs>
<clipPath id="clip0_16_40">
<rect width="48" height="48" fill="white"/>
</clipPath>
</defs>
</svg>
